<svg xmlns="http://www.w3.org/2000/svg" viewBox="0 0 233 30">
  <g fill="#82CE32">
    <g transform="translate(200.449)">
      <polygon points="10.471 22.28 13.186 29.409 10.285 29.431 .037 2.654 2.824 2.331 10.479 22.28"/>
      <polygon points="32.534 1.431 32.534 21.64 22.392 22.834 21.455 20.389 12.258 21.457 4.854 2.097 22.88 0 23.805 2.449"/>
    </g>
    <path d="M2.53605053e-16 21.1942857L2.53605053e-16 9.34 3.21231618 9.34 3.21231618 20.9942857C3.21231618 22.9238095 3.69392565 24.3771429 4.65714461 25.3542857 5.62036356 26.3314286 6.94621732 26.82 8.63470588 26.82 10.3191717 26.8757349 11.9475757 26.2106727 13.1119608 24.9914286 14.2693464 23.7742857 14.8480392 22.1733333 14.8480392 20.1885714L14.8480392 9.33142857 18.071777 9.33142857 18.071777 29.4285714 14.8480392 29.4285714 14.8480392 26.4171429 14.8194853 26.4171429 14.576777 26.78C14.3470649 27.0768452 14.0919728 27.3531254 13.8143873 27.6057143 13.4126354 27.9930249 12.9757862 28.3421446 12.509473 28.6485714 11.9159327 29.0120657 11.273685 29.2891327 10.6020711 29.4714286 9.76792297 29.7180631 8.90200011 29.8403294 8.03221814 29.8342857 5.59752042 29.8342857 3.64919118 29.0638095 2.18723039 27.5228571.725269608 25.9819048-.00380718954 23.872381 2.53605053e-16 21.1942857zM22.1035907 29.4285714L22.1035907 9.34 25.3159069 9.34 25.3159069 12.3542857 25.3558824 12.3542857 25.5985907 12C25.8267661 11.701857 26.0819805 11.4254444 26.3609804 11.1742857 26.7627323 10.7869751 27.1995814 10.4378554 27.6658946 10.1314286 28.2598589 9.76806487 28.9019493 9.49010392 29.5732966 9.30571429 30.4078242 9.06113741 31.2735825 8.93985693 32.1431495 8.94571429 34.5797508 8.94571429 36.5280801 9.7152381 37.9881373 11.2542857 39.4481944 12.7933333 40.1772712 14.9038095 40.1753676 17.5857143L40.1753714 29.4285714 36.9630515 29.4285714 36.9630515 17.78C36.9630515 15.852381 36.481442 14.3990476 35.518223 13.42 34.5550041 12.4409524 33.2291503 11.952381 31.5406618 11.9542857 29.856763 11.8985421 28.2287122 12.5624211 27.0634069 13.78 25.8984069 15.0009524 25.3159069 16.5980952 25.3159069 18.5714286L25.3159069 29.4285714 22.1035907 29.4285714z"/>
    <polygon points="42.197 12.354 42.197 9.34 44.807 9.34 44.807 4.92 48.019 4.92 48.019 9.34 54.444 9.34 54.444 12.354 48.019 12.354 48.019 26.417 54.646 26.417 54.646 29.429 44.807 29.429 44.807 12.354"/>
    <path d="M57.8902206 29.4285714L57.8902206 1.30285714 61.1053922 1.30285714 61.1053922 12.3542857 61.1453676 12.3542857 61.3909314 12C61.6208404 11.7033217 61.8759174 11.4270579 62.1533211 11.1742857 62.555073 10.7869751 62.9919221 10.4378554 63.4582353 10.1314286 64.0521996 9.76806487 64.69429 9.49010392 65.3656373 9.30571429 66.2002679 9.06161626 67.0659557 8.94034566 67.9354902 8.94571429 70.3701879 8.94571429 72.3175654 9.7152381 73.7776225 11.2542857 75.2376797 12.7933333 75.9629493 14.9019048 75.9534314 17.58L75.9535238 29.4285714 72.746826 29.4285714 72.746826 17.78C72.746826 15.852381 72.2652165 14.3990476 71.3019975 13.42 70.3387786 12.4409524 69.0138766 11.952381 67.3272917 11.9542857 65.6424755 11.8980866 64.013367 12.5619735 62.8471814 13.78 61.6859886 15.0009524 61.1053922 16.5980952 61.1053922 18.5714286L61.1053922 29.4285714 57.8902206 29.4285714zM79.1971569 29.4285714L79.1971569 9.34 82.4123284 9.34 82.4123284 29.4285714 79.1971569 29.4285714zM79.1971569 1.1L82.4123284 1.1 82.4123284 5.94285714 79.1971569 5.94285714 79.1971569 1.1zM85.998701 29.4285714L85.998701 9.34 89.2110172 9.34 89.2110172 12.3542857 89.2509926 12.3542857 89.493701 11.9942857C89.7218764 11.6961428 89.9770908 11.4197301 90.2560907 11.1685714 90.6572446 10.7805797 91.0941601 10.431407 91.5610049 10.1257143 92.1549692 9.76235058 92.7970596 9.48438963 93.4684069 9.3 94.3029345 9.05542312 95.1686928 8.93414264 96.0382598 8.94 98.4748611 8.94 100.42319 9.70952381 101.883248 11.2485714 103.343305 12.787619 104.072382 14.8980952 104.070478 17.58L104.070478 29.4285714 100.858162 29.4285714 100.858162 17.78C100.858162 15.852381 100.3756 14.3990476 99.4104779 13.42 98.4453554 12.4409524 97.1204534 11.952381 95.4357721 11.9542857 93.751808 11.8981768 92.123614 12.5621143 90.9585172 13.78 89.7935172 15.0009524 89.2110172 16.6019048 89.2110172 18.5828571L89.2110172 29.44 85.998701 29.4285714z"/>
    <polygon points="107.169 29.429 107.169 1.303 110.381 1.303 110.381 17.377 114.396 17.377 120.823 9.34 124.638 9.34 117.214 18.783 125.237 29.429 121.223 29.429 114.396 20.391 110.381 20.391 110.381 29.429"/>
    <path d="M127.878738 26.84C125.990372 24.8457143 125.047141 22.3609524 125.049044 19.3857143 125.050948 16.4104762 125.994179 13.9257143 127.878738 11.9314286 129.614292 10.0038892 132.093242 8.91452196 134.685993 8.94 135.609494 8.93382879 136.528999 9.0618301 137.415748 9.32 138.146702 9.51798718 138.844324 9.82320303 139.485907 10.2257143 139.964175 10.5402818 140.41417 10.8959098 140.830797 11.2885714 141.125716 11.5632862 141.392583 11.8666858 141.627451 12.1942857 141.723909 12.3185508 141.805375 12.4537716 141.870159 12.5971429L141.91299 12.5971429 141.91299 9.34 145.125306 9.34 145.125306 29.4285714 141.91299 29.4285714 141.91299 26.2171429 141.873015 26.2171429C141.80715 26.3543492 141.724676 26.4829327 141.627451 26.6 141.383915 26.9214119 141.115643 27.2232837 140.825086 27.5028571 140.418592 27.9064204 139.969576 28.2647037 139.485907 28.5714286 138.840417 28.9609538 138.1436 29.2581245 137.415748 29.4542857 136.529443 29.7148216 135.609728 29.8438146 134.685993 29.8371429 132.092196 29.8619081 129.612813 28.770269 127.878738 26.84zM130.228725 14.0428571C128.919052 15.4352381 128.263264 17.2161905 128.26136 19.3857143 128.259457 21.5552381 128.915245 23.3371429 130.228725 24.7314286 131.493266 26.0619397 133.247912 26.8151454 135.082892 26.8151454 136.917872 26.8151454 138.672519 26.0619397 139.937059 24.7314286 141.250539 23.3390476 141.907279 21.5571429 141.907279 19.3857143 141.907279 17.2142857 141.250539 15.4333333 139.937059 14.0428571 138.672519 12.712346 136.917872 11.9591403 135.082892 11.9591403 133.247912 11.9591403 131.493266 12.712346 130.228725 14.0428571zM149.19424 29.4285714L149.19424 1.30285714 152.406556 1.30285714 152.406556 12.5542857 152.446532 12.5542857C152.514052 12.4195435 152.595392 12.292192 152.68924 12.1742857 152.932577 11.8518205 153.200857 11.5489839 153.491605 11.2685714 153.900883 10.8674723 154.351727 10.5111734 154.836495 10.2057143 155.481629 9.81678856 156.177283 9.51874292 156.903799 9.32 157.791558 9.06199069 158.711982 8.93399546 159.636409 8.94 162.22916 8.91452196 164.70811 10.0038892 166.443664 11.9314286 168.33203 13.9295238 169.275261 16.4142857 169.273358 19.3857143 169.271454 22.3571429 168.328223 24.8419048 166.443664 26.84 164.70907 28.7692106 162.229759 29.8597777 159.636409 29.8342857 158.711751 29.840743 157.791125 29.7117572 156.903799 29.4514286 156.17702 29.2547692 155.481213 28.9576197 154.836495 28.5685714 154.350974 28.2630828 153.900035 27.905751 153.491605 27.5028571 153.201048 27.2232837 152.932776 26.9214119 152.68924 26.6 152.594255 26.4818848 152.512841 26.3534593 152.446532 26.2171429L152.406556 26.2171429 152.406556 29.4285714 149.19424 29.4285714zM154.373922 14.04C153.062345 15.432381 152.406556 17.2133333 152.406556 19.3828571 152.406556 21.552381 153.062345 23.3342857 154.373922 24.7285714 155.638877 26.0583268 157.393369 26.8110004 159.228088 26.8110004 161.062808 26.8110004 162.817299 26.0583268 164.082255 24.7285714 165.393832 23.3361905 166.04962 21.5542857 166.04962 19.3828571 166.04962 17.2114286 165.393832 15.4304762 164.082255 14.04 162.817299 12.7102447 161.062808 11.9575711 159.228088 11.9575711 157.393369 11.9575711 155.638877 12.7102447 154.373922 14.04z"/>
    <polygon points="175.107 1.303 175.107 29.429 171.895 29.429 171.895 4.317 167.275 4.317 167.275 1.303"/>
    <path d="M180.53788,26.8571429 C178.582888,24.88 177.605392,22.3895238 177.605392,19.3857143 C177.605392,16.3819048 178.581936,13.8904762 180.535025,11.9114286 C182.49192,9.93238095 184.928521,8.94190476 187.844828,8.94 C190.761136,8.93809524 193.197737,9.9152381 195.154632,11.8714286 C197.107721,13.8295238 198.084265,16.267619 198.084265,19.1857143 L198.084265,20.3914286 L180.820564,20.3914286 C181.126172,24.0414985 184.187136,26.841739 187.847684,26.82 C188.706049,26.829105 189.560278,26.6998309 190.377561,26.4371429 C191.049483,26.2354274 191.686157,25.9308703 192.264975,25.5342857 C192.70701,25.2203408 193.123314,24.8716159 193.509926,24.4914286 C193.797153,24.2221212 194.040859,23.9098317 194.232341,23.5657143 L194.475049,23.2028571 L197.687365,23.2028571 C197.609414,23.4511991 197.513996,23.6937097 197.401826,23.9285714 C197.112461,24.4798149 196.784212,25.009728 196.419571,25.5142857 C195.911006,26.2602724 195.302885,26.9331719 194.612108,27.5142857 C192.674504,29.0135623 190.294192,29.8265803 187.844828,29.8257143 C184.928521,29.8314286 182.492872,28.8419048 180.53788,26.8571429 Z M180.900515,17.5771429 L194.674926,17.5771429 C194.473029,16.0158508 193.691153,14.587822 192.484841,13.5771429 C191.243697,12.4914286 189.697978,11.9495238 187.847684,11.9514286 C186.147791,11.89836 184.48856,12.4775637 183.190539,13.5771429 C181.971137,14.5926012 181.15816,16.0136479 180.900515,17.58 L180.900515,17.5771429 Z"/>
  </g>
</svg>
